<?xml version="1.0" encoding="UTF-8"?>
<svg id="Layer_2" data-name="Layer 2" xmlns="http://www.w3.org/2000/svg" viewBox="0 0 58.56 59.57">
  <g id="Layer_1-2" data-name="Layer 1">
    <path d="m37.74,13.11c-9.19-4.48-20.28-.67-24.76,8.53-4.48,9.19-.67,20.28,8.53,24.76,9.19,4.48,20.28.67,24.76-8.53m-.45-17.09c-4.96-8.94-16.23-12.18-25.17-7.22-8.94,4.96-12.18,16.23-7.22,25.17,4.96,8.94,16.23,12.18,25.17,7.22" style="fill: none; stroke: #000; stroke-linecap: round; stroke-miterlimit: 10; stroke-width: 4px;"/>
    <path d="m38.37,3.37C23.78-1.37,8.11,6.61,3.37,21.2c-4.74,14.59,3.24,30.26,17.83,35,14.59,4.74,30.26-3.24,35-17.83m-.66-18.99C49.79,5.16,33.6-1.72,19.38,4.03,5.16,9.78-1.72,25.96,4.03,40.19c5.75,14.22,21.93,21.09,36.16,15.35" style="fill: none; stroke: #000; stroke-linecap: round; stroke-miterlimit: 10; stroke-width: 4px;"/>
    <line x1="46.56" y1="37.68" x2="56.56" y2="37.68" style="fill: none; stroke: #000; stroke-linecap: round; stroke-miterlimit: 10; stroke-width: 4px;"/>
  </g>
</svg>